<svg enable-background="new 0 0 256 256" height="512" viewBox="0 0 256 256" width="512" xmlns="http://www.w3.org/2000/svg"><g id="Layer_1"><g><g><g><path d="m128 6c-10.936 0-19.8 8.865-19.8 19.8v11.811c0 10.935 8.865 19.8 19.8 19.8s19.8-8.865 19.8-19.8v-11.811c0-10.935-8.864-19.8-19.8-19.8z" fill="#feb69f"/></g><g><path d="m193.542 57.411h-131.084v21.744h28.051c1.8 0 3.22 1.531 3.085 3.326l-11.554 153.031-4.395 10.311c-.844 1.979.609 4.176 2.76 4.176h23.17c2.598 0 4.764-1.99 4.982-4.579l6.08-71.978c.587-6.944 6.394-12.282 13.363-12.282 6.969 0 12.776 5.338 13.363 12.282l6.08 71.978c.219 2.589 2.384 4.579 4.982 4.579h23.17c2.151 0 3.603-2.197 2.76-4.176l-4.395-10.311-11.553-153.03c-.136-1.795 1.284-3.326 3.085-3.326h28.051v-21.745z" fill="#72c2e9"/></g><g><path d="m40.714 69.155v-36.283c0-6.004 4.867-10.872 10.872-10.872 6.004 0 10.872 4.868 10.872 10.872v46.283h-11.744c-5.523 0-10-4.477-10-10z" fill="#feb69f"/></g><g><path d="m193.542 79.155v-46.283c0-6.004 4.868-10.872 10.872-10.872 6.004 0 10.872 4.868 10.872 10.872v36.283c0 5.523-4.477 10-10 10z" fill="#feb69f"/></g><g><g><path d="m120.937 114.77v-11.368h-11.368v-14.127h11.368v-11.368h14.126v11.368h11.368v14.127h-11.368v11.368z" fill="#fc5d3d"/></g></g><g><path d="m73.3 132.631c-3.683-1.217-7.487-2.281-9.623-11.48-1.967 8.473-5.118 9.992-9.623 11.48 7.347 2.428 8.455 6.447 9.623 11.48 2.013-8.676 5.343-10.066 9.623-11.48z" fill="#f0c020"/></g><g><path d="m183.415 19.946c-3.683-1.217-7.487-2.281-9.623-11.481-1.967 8.473-5.118 9.992-9.623 11.481 7.347 2.428 8.455 6.447 9.623 11.481 2.013-8.677 5.343-10.066 9.623-11.481z" fill="#f0c020"/></g><g><path d="m205.129 110.285c-3.683-1.217-7.487-2.281-9.623-11.48-1.967 8.473-5.118 9.992-9.623 11.48 7.347 2.428 8.455 6.447 9.623 11.481 2.013-8.677 5.343-10.067 9.623-11.481z" fill="#f0c020"/></g></g><g><g><path d="m166.09 243.22h-9.73c-1.38 0-2.5-1.12-2.5-2.5s1.12-2.5 2.5-2.5h6.011c-.044-.216-9.214-121.75-9.23-121.97-.104-1.383.945-2.578 2.311-2.68 1.369-.1 2.569.95 2.68 2.31l9.15 121.26 1.109 2.6c.701 1.638-.5 3.48-2.301 3.48z" fill="#c5e5fe"/></g><g><path d="m54.055 69.75c-1.381 0-2.5-1.119-2.5-2.5v-4.352c0-1.381 1.119-2.5 2.5-2.5s2.5 1.119 2.5 2.5v4.352c0 1.381-1.119 2.5-2.5 2.5zm0-14.352c-1.381 0-2.5-1.119-2.5-2.5v-19c0-1.381 1.119-2.5 2.5-2.5s2.5 1.119 2.5 2.5v19c0 1.381-1.119 2.5-2.5 2.5z" fill="#fae0e1"/></g><g><path d="m207.597 69.75c-1.381 0-2.5-1.119-2.5-2.5v-4.352c0-1.381 1.119-2.5 2.5-2.5s2.5 1.119 2.5 2.5v4.352c0 1.381-1.119 2.5-2.5 2.5zm0-14.352c-1.381 0-2.5-1.119-2.5-2.5v-19c0-1.381 1.119-2.5 2.5-2.5s2.5 1.119 2.5 2.5v19c0 1.381-1.119 2.5-2.5 2.5z" fill="#fae0e1"/></g><path d="m128 47.57c5.49 0 9.96-4.47 9.96-9.96 0-1.38-1.12-2.5-2.5-2.5-1.37 0-2.49 1.12-2.5 2.49v.01c0 2.73-2.23 4.96-4.96 4.96s-4.96-2.23-4.96-4.96c0-1.38-1.12-2.5-2.5-2.5s-2.5 1.12-2.5 2.5c0 5.49 4.47 9.96 9.96 9.96z"/><path d="m109.899 17.38c.4.25.86.38 1.33.38.87 0 1.66-.43 2.12-1.17.351-.56.47-1.23.32-1.88s-.54-1.21-1.11-1.56c-1.13-.72-2.729-.35-3.439.78-.36.57-.471 1.24-.33 1.89.149.65.55 1.2 1.109 1.56z"/><path d="m215.29 49.92c-1.38 0-2.5 1.12-2.5 2.5s1.12 2.5 2.5 2.5c1.37 0 2.49-1.12 2.49-2.5s-1.12-2.5-2.49-2.5z"/><path d="m50.71 81.66c4.306 0 35.495-.01 39.8-.01.31 0 .59.235.59.68v.01l-6.33 83.74c-.099 1.332.885 2.574 2.311 2.68 1.38.11 2.58-.94 2.68-2.3.005-.06 6.33-83.77 6.33-83.83.222-3.184-2.323-5.97-5.58-5.97h-25.551v-16.75h126.08v16.75h-25.55c-3.235 0-5.813 2.759-5.58 6.01.046.606 11.505 153.264 11.75 153.82l4.399 10.31c.122.417-.153.7-.46.7h-23.17c-1.32 0-2.39-.98-2.5-2.29l-6.08-71.98c-.682-8.218-7.573-14.57-15.85-14.57-8.281 0-15.169 6.355-15.851 14.57l-6.09 71.98c-.109 1.31-1.18 2.29-2.49 2.29h-23.17c-.3 0-.5-.26-.5-.5 0-.121 4.583-10.619 4.631-11.3l3.72-49.3c.106-1.402-.942-2.577-2.3-2.68-1.37-.1-2.57.94-2.681 2.29v.01l-3.689 48.89-4.24 9.93c-1.545 3.676 1.177 7.634 5.06 7.66h23.17c3.895 0 7.148-2.972 7.48-6.87l6.08-71.98c.47-5.6 5.24-9.99 10.87-9.99 5.62 0 10.399 4.39 10.87 9.99l6.08 71.98c.33 3.897 3.585 6.87 7.479 6.87h23.17c3.862-.026 6.61-3.963 5.061-7.65l-4.24-9.94-11.52-152.62c0-.416.288-.64.591-.64h39.8c6.89 0 12.49-5.6 12.49-12.49v-6.74c0-1.38-1.12-2.5-2.49-2.5-1.38 0-2.5 1.12-2.5 2.5v6.74c-.01 4.12-3.38 7.49-7.5 7.49h-9.25c0-6.747 0-37.136 0-43.78.01-4.61 3.76-8.36 8.37-8.37 4.609.01 8.37 3.76 8.38 8.37v9.55c0 1.38 1.12 2.5 2.5 2.5 1.37 0 2.5-1.12 2.5-2.5l-.01-9.55c0-7.37-5.99-13.37-13.37-13.37-7.37 0-13.37 6-13.37 13.37v22.04h-48.99c5.028-4.092 8.25-10.325 8.25-17.3v-11.81c0-12.325-9.966-22.3-22.3-22.3-3.771 0-7.5.96-10.79 2.78-.58.32-1.01.85-1.19 1.5-.189.64-.109 1.31.21 1.9.65 1.16 2.23 1.62 3.4.97 2.59-1.43 5.4-2.15 8.37-2.15 9.52.02 17.28 7.78 17.3 17.3v11.81c-.02 9.52-7.78 17.28-17.3 17.3-9.521-.02-17.28-7.78-17.3-17.3v-11.81c0-.35.01-.69.02-.98.082-1.354-.949-2.545-2.35-2.63-1.351-.08-2.561.99-2.641 2.36-.02.42-.029.84-.029 1.25v11.81c0 6.975 3.218 13.208 8.246 17.3h-48.986v-22.04c0-7.37-6-13.37-13.37-13.37-7.38 0-13.37 6-13.38 13.37v36.28c.01 6.9 5.609 12.5 12.5 12.51zm-7.5-48.79c.01-4.61 3.77-8.36 8.38-8.37 4.6.01 8.36 3.76 8.37 8.37v43.79h-9.25c-4.12-.01-7.49-3.38-7.5-7.51z"/><path d="m86.33 178.74c1.671 0 2.589-1.132 2.68-2.31.1-1.38-.93-2.58-2.31-2.68-1.351-.1-2.58.94-2.681 2.3-.099 1.38.931 2.58 2.311 2.69z"/><path d="m135.06 75.41h-14.12c-1.394 0-2.5 1.117-2.5 2.5v8.87h-8.87c-1.352 0-2.5 1.079-2.5 2.5v14.12c0 1.383 1.114 2.5 2.5 2.5h8.87v8.87c0 1.411 1.149 2.5 2.5 2.5h14.12c1.38 0 2.5-1.105 2.5-2.5v-8.87h8.87c1.364 0 2.5-1.092 2.5-2.5v-14.12c0-1.386-1.111-2.5-2.5-2.5h-8.87v-8.87c0-1.386-1.112-2.5-2.5-2.5zm8.87 16.36v9.13h-8.87c-1.377 0-2.5 1.137-2.5 2.5v8.87h-9.12v-8.87c0-1.371-1.134-2.5-2.5-2.5h-8.87v-9.13h8.87c1.356 0 2.5-1.104 2.5-2.49v-8.87h9.12v8.87c0 1.325 1.088 2.49 2.5 2.49z"/><path d="m74.075 130.282c-3.468-1.142-6.176-1.881-7.99-9.691-.59-2.545-4.229-2.538-4.818 0-1.773 7.637-4.246 8.455-7.989 9.692-2.254.745-2.259 3.951 0 4.697 6.218 2.054 6.922 5.092 7.989 9.691.593 2.551 4.227 2.55 4.819 0 1.771-7.637 4.38-8.499 7.989-9.691 2.255-.746 2.26-3.952 0-4.698zm-10.349 6.5c-.876-1.476-2.093-2.873-3.872-4.094 1.44-.988 2.729-2.328 3.832-4.313 1.116 2.01 2.386 3.34 3.699 4.279-1.369.962-2.598 2.252-3.659 4.128z"/><path d="m163.393 22.295c6.218 2.054 6.922 5.092 7.989 9.691.593 2.551 4.227 2.55 4.819 0 1.771-7.637 4.38-8.499 7.989-9.691 2.254-.745 2.26-3.951 0-4.697-3.468-1.142-6.176-1.881-7.989-9.691-.59-2.545-4.229-2.538-4.818 0-1.773 7.637-4.246 8.455-7.99 9.692-2.254.744-2.259 3.95 0 4.696zm10.408-6.605c1.116 2.01 2.386 3.34 3.699 4.279-1.369.962-2.598 2.253-3.659 4.128-.876-1.476-2.093-2.873-3.872-4.094 1.44-.988 2.729-2.329 3.832-4.313z"/><path d="m197.915 98.245c-.59-2.545-4.229-2.538-4.818 0-1.773 7.637-4.246 8.455-7.989 9.692-2.254.745-2.259 3.951 0 4.697 6.218 2.054 6.922 5.092 7.989 9.691.593 2.551 4.227 2.55 4.819 0 1.771-7.637 4.38-8.499 7.989-9.691 2.254-.745 2.26-3.951 0-4.697-3.468-1.143-6.177-1.881-7.99-9.692zm-2.36 16.191c-.876-1.476-2.093-2.873-3.872-4.094 1.44-.988 2.729-2.328 3.832-4.313 1.116 2.01 2.386 3.34 3.699 4.279-1.369.962-2.598 2.253-3.659 4.128z"/><path d="m120.54 29c1.38 0 2.5-1.12 2.5-2.5v-2.33c0-1.38-1.12-2.5-2.5-2.5s-2.5 1.12-2.5 2.5v2.33c0 1.38 1.12 2.5 2.5 2.5z"/><path d="m137.96 26.5v-2.33c0-1.38-1.12-2.5-2.5-2.5s-2.5 1.12-2.5 2.5v2.33c0 1.38 1.12 2.5 2.5 2.5s2.5-1.12 2.5-2.5z"/></g></g></g></svg>