<?xml version="1.0"?>
<svg xmlns="http://www.w3.org/2000/svg" xmlns:xlink="http://www.w3.org/1999/xlink" xmlns:svgjs="http://svgjs.com/svgjs" version="1.1" width="512" height="512" x="0" y="0" viewBox="0 0 64 64" style="enable-background:new 0 0 512 512" xml:space="preserve" class=""><g><path xmlns="http://www.w3.org/2000/svg" d="m10 26h39.172l-3.586 3.586c-.781.781-.781 2.047 0 2.828.391.391.902.586 1.414.586s1.023-.195 1.414-.586l7-7c.781-.781.781-2.047 0-2.828l-7-7c-.781-.781-2.047-.781-2.828 0s-.781 2.047 0 2.828l3.586 3.586h-39.172c-1.104 0-2 .896-2 2s.896 2 2 2z" fill="#ffffff" data-original="#000000" style="" class=""/><path xmlns="http://www.w3.org/2000/svg" d="m54 38h-39.172l3.586-3.586c.781-.781.781-2.047 0-2.828-.78-.781-2.048-.781-2.828 0l-7 7c-.781.781-.781 2.047 0 2.828l7 7c.39.391.902.586 1.414.586s1.024-.195 1.414-.586c.781-.781.781-2.047 0-2.828l-3.586-3.586h39.172c1.104 0 2-.896 2-2s-.896-2-2-2z" fill="#ffffff" data-original="#000000" style="" class=""/></g></svg>
